<svg id="Layer_1" enable-background="new 0 0 512 512" height="512" viewBox="0 0 512 512" width="512" xmlns="http://www.w3.org/2000/svg"><g><path d="m504.5 480.613h-44.723v-22.128c0-9.855-8.018-17.873-17.873-17.873h-24.825l31.653-187.166c.223.008.444.03.669.03.328 0 .657-.009.987-.028 4.545-.257 8.719-2.27 11.751-5.667l13.924-15.599c3.032-3.396 4.56-7.771 4.302-12.316s-2.27-8.719-5.667-11.751l-209.8-187.282c-6.645-5.931-16.665-5.93-23.31.002l-115.626 103.243c-3.09 2.759-3.358 7.5-.599 10.59s7.501 3.358 10.589.599l115.628-103.242c.948-.847 2.379-.849 3.33 0l209.8 187.281c.522.467.658 1.024.68 1.41s-.05.955-.517 1.478l-13.924 15.599c-.467.523-1.024.658-1.41.68-.385.019-.955-.05-1.478-.517l-183.159-163.5c-6.643-5.931-16.665-5.931-23.309.001l-183.112 163.497c-.841.751-2.136.678-2.888-.163l-13.926-15.597c-.466-.522-.538-1.091-.516-1.478.021-.386.157-.943.68-1.41l71.508-63.849c3.09-2.759 3.358-7.5.599-10.59-2.758-3.09-7.5-3.358-10.589-.599l-71.509 63.849c-3.396 3.033-5.409 7.206-5.666 11.752s1.271 8.919 4.303 12.315l13.926 15.597c3.525 3.947 8.489 5.865 13.405 5.67l31.652 187.161h-19.365c-9.855 0-17.873 8.018-17.873 17.873v22.128h-44.722c-4.142 0-7.5 3.358-7.5 7.5s3.358 7.5 7.5 7.5h497c4.142 0 7.5-3.358 7.5-7.5s-3.358-7.5-7.5-7.5zm-189.792-40h-122.875v-3.826c0-20.66 16.808-37.468 37.468-37.468h47.938c20.66 0 37.469 16.808 37.469 37.468zm-137.875-119.888v5.553h-91.495l-5.913-34.967h103.302c-3.792 9.059-5.894 18.994-5.894 29.414zm-88.958 20.553h88.958v34.967h-83.045zm189.364 43.041h-47.938c-14.666 0-27.938 6.055-37.468 15.789v-79.382c0-33.877 27.561-61.438 61.438-61.438s61.437 27.561 61.437 61.438v79.383c-9.53-9.735-22.803-15.79-37.469-15.79zm143.964-58.041h-91.495v-5.553c0-10.419-2.102-20.355-5.894-29.415h103.302zm-91.495 15h88.958l-5.914 34.967h-83.044zm-78.125-255.632c.948-.847 2.379-.849 3.33 0l179.836 160.533-5.096 30.131h-114.232c-13.881-19.368-36.559-32.023-62.151-32.023s-48.27 12.655-62.15 32.023h-114.232l-5.096-30.132zm-155.258 305.598h80.508v49.369h-72.159zm-29.103 67.242c0-1.584 1.288-2.873 2.873-2.873h291.657c4.142 0 7.5-3.358 7.5-7.5s-3.358-7.5-7.5-7.5h-32.044v-49.369h80.508l-8.314 49.16c-.012.07-.015.139-.025.209h-10.125c-4.142 0-7.5 3.358-7.5 7.5s3.358 7.5 7.5 7.5h50.152c1.584 0 2.873 1.289 2.873 2.873v22.128h-377.555z"/><path d="m254.267 225.998c.57.136 1.152.203 1.733.203.727 0 1.452-.105 2.154-.316 16.66-4.996 33.949-22.312 38.032-27.717 3.927-5.198 6.003-11.397 6.003-17.926 0-16.41-13.351-29.761-29.761-29.761-5.879 0-11.595 1.757-16.428 4.953-4.833-3.196-10.55-4.953-16.429-4.953-16.41 0-29.761 13.351-29.761 29.761 0 6.529 2.076 12.728 6.003 17.925 3.636 4.814 20.817 23.643 38.454 27.831zm-14.696-60.516c4.192 0 8.061 1.706 10.895 4.804 1.421 1.553 3.429 2.438 5.534 2.438s4.113-.885 5.534-2.438c2.833-3.098 6.702-4.804 10.894-4.804 8.139 0 14.761 6.622 14.761 14.761 0 3.239-1.027 6.311-2.972 8.884-3.664 4.85-17.257 17.439-28.426 21.723-11.606-3.843-24.621-17.239-28.009-21.724-1.944-2.573-2.972-5.645-2.972-8.884.001-8.138 6.622-14.76 14.761-14.76z"/></g></svg>