<svg id="ek9ntu59qjle1" xmlns="http://www.w3.org/2000/svg" xmlns:xlink="http://www.w3.org/1999/xlink" viewBox="0 0 480 480" shape-rendering="geometricPrecision" text-rendering="geometricPrecision"><path id="ek9ntu59qjle2" d="M457.389000,91.089000C422.011000,30.438000,344.164000,9.951000,283.514000,45.330000C268.850000,53.884000,256.047000,65.288000,245.862000,78.870000L240,86.682000L234.140000,78.872000C210.068000,46.932000,172.426000,28.109000,132.430000,28.012000L129.400000,28.012000C85.931000,28.010000,45.475000,50.220000,22.141000,86.896000C7.669000,109.611000,-0.013000,135.988000,0,162.922000L0,186.052000C-0.113000,254.895000,34.590000,319.127000,92.233000,356.766000L105.887000,365.711000L161.992000,402.466000L235.618000,450.702000C238.292000,452.453000,241.753000,452.444000,244.418000,450.679000L388.600000,355.192000C445.745000,317.448000,480.089000,253.506000,480,185.022000L480,174.722000C479.993000,145.335000,472.191000,116.476000,457.389000,91.089000ZM192.845000,399.589000L195.791000,405.483000L131.491000,363.358000L114.655000,352.328000L110.073000,349.328000L150.658000,288.451000C151.534000,287.136000,152.001000,285.592000,152,284.012000L152,258.972000C152,258.449000,152.009000,257.917000,152.025000,257.406000C152.480000,247.512000,156.249000,238.058000,162.725000,230.565000L164.014000,229.049000L168.240000,245.949000C169.129000,249.511000,172.329000,252.011000,176,252.012000L195.156000,252.012000C200.508000,252.007000,205.507000,254.685000,208.467000,259.144000C213.928000,267.343000,222.370000,273.089000,232,275.162000L232,284.012000C231.990000,292.844000,224.832000,300.002000,216,300.012000C211.582000,300.012000,208,303.594000,208,308.012000L208,337.112000C208.008000,342.642000,206.369000,348.050000,203.293000,352.646000L193.343000,367.575000C192.467000,368.889000,192,370.433000,192,372.012000L192,396.012000C192,397.254000,192.289000,398.479000,192.845000,399.590000ZM224,423.966000L216,418.725000L216,412.012000C216,410.768000,215.710000,409.541000,215.153000,408.429000L215.068000,408.258000L224,399.325000ZM288,402.626000L272,413.226000L272,368.012000L288,356.012000ZM302.950000,302.456000C302.371000,314.094000,297.999000,325.222000,290.500000,334.140000L259.200000,357.612000C257.186000,359.123000,256,361.494000,256,364.012000L256,423.819000L240,434.419000L240,380.012000C240,375.594000,236.419000,372.012000,232,372.012000C229.878000,372.012000,227.843000,372.855000,226.343000,374.355000L208,392.698000L208,374.434000L216.600000,361.528000C221.435000,354.304000,224.011000,345.805000,224,337.112000L224,314.999000C238.119000,311.334000,247.982000,298.599000,248,284.012000L248,268.012000C248,263.594000,244.418000,260.012000,240,260.012000C232.678000,260.018000,225.838000,256.360000,221.778000,250.266000C218.478000,245.304000,213.856000,241.364000,208.434000,238.892000L220.686000,226.640000L220.422000,227.167000L248.212000,241.067000C262.622000,248.249000,278.500000,251.995000,294.600000,252.012000L298.069000,252.012000L302.115000,282.312000C303.007000,288.987000,303.286000,295.730000,302.950000,302.456000ZM248,172.012000L248,198.002000C247.997000,201.319000,245.308000,204.008000,241.991000,204.012000L232,204.012000L232,189.732000C231.948000,170.250000,239.692000,151.556000,253.507000,137.819000C257.229000,134.104000,262.271000,132.015000,267.530000,132.012000L284.850000,132.012000C289.873000,131.999000,294.692000,133.996000,298.233000,137.559000L314.343000,153.669000C315.843000,155.169000,317.878000,156.012000,320,156.012000L336,156.012000L336,168.012000C335.993000,174.636000,330.624000,180.005000,324,180.012000L304,180.012000C299.582000,180.012000,296,183.594000,296,188.012000L296,236.012000L294.600000,236.012000C280.984000,235.996000,267.557000,232.826000,255.372000,226.751000L241.889000,220.012000L241.989000,220.012000C254.139000,219.999000,263.986000,210.152000,264,198.002000L264,172.012000ZM464,185.022000C464.081000,248.138000,432.429000,307.068000,379.763000,341.852000L304,392.029000L304,342.892000C312.991000,331.560000,318.212000,317.698000,318.930000,303.250000C319.312000,295.551000,318.991000,287.834000,317.970000,280.194000L312,235.481000L312,196.012000L324,196.012000C339.457000,195.994000,351.982000,183.469000,352,168.012000L352,148.012000C352,143.594000,348.418000,140.012000,344,140.012000L323.314000,140.012000L309.547000,126.244000C303.012000,119.672000,294.118000,115.987000,284.850000,116.012000L267.530000,116.012000C258.028000,116.016000,248.915000,119.789000,242.193000,126.505000C225.368000,143.237000,215.936000,166.004000,216,189.732000L216,208.699000L188.686000,236.012000L182.246000,236.012000L175.761000,210.072000C174.689000,205.786000,170.346000,203.179000,166.060000,204.251000C164.440000,204.656000,162.988000,205.557000,161.906000,206.829000L150.533000,220.202000C141.721000,230.451000,136.614000,243.366000,136.033000,256.869000C136.010000,257.569000,135.998000,258.275000,135.998000,258.969000L135.998000,281.587000L113.668000,315.087000C100.165000,304.972000,87.996000,293.191000,77.449000,280.023000L70.247000,271.012000C67.486000,267.562000,62.450000,267.004000,59,269.765000C55.550000,272.526000,54.992000,277.562000,57.753000,281.012000L64.953000,290.019000C76.529000,304.472000,89.915000,317.378000,104.781000,328.419000L96.729000,340.496000C46.077000,305.407000,15.898000,247.671000,16,186.052000L16,162.922000C15.988000,139.031000,22.802000,115.634000,35.640000,95.486000C56.037000,63.426000,91.401000,44.010000,129.400000,44.012000L132.430000,44.012000C167.393000,44.097000,200.298000,60.552000,221.341000,88.473000L233.600000,104.812000C236.251000,108.347000,241.265000,109.063000,244.800000,106.412000C245.406000,105.957000,245.945000,105.418000,246.400000,104.812000L258.660000,88.472000C295.485000,39.367000,365.145000,29.413000,414.249000,66.238000C426.121000,75.141000,436.090000,86.332000,443.568000,99.150000C456.944000,122.090000,463.994000,148.167000,464,174.722000Z" fill="rgb(255,255,255)" stroke="none" stroke-width="1"/><path id="ek9ntu59qjle3" d="M272,148.012000L288,148.012000L288,164.012000L272,164.012000Z" fill="rgb(255,255,255)" stroke="none" stroke-width="1"/><path id="ek9ntu59qjle4" d="M184,268.012000L200,268.012000L200,284.012000L184,284.012000Z" fill="rgb(255,255,255)" stroke="none" stroke-width="1"/><path id="ek9ntu59qjle5" d="M421,269.765000C417.551000,267.003000,412.517000,267.561000,409.755000,271.010000C409.754000,271.011000,409.754000,271.012000,409.753000,271.012000L402.553000,280.018000C386.814000,299.723000,367.478000,316.262000,345.572000,328.756000L324.035000,341.063000C320.195000,343.249000,318.854000,348.133000,321.040000,351.973000C323.226000,355.813000,328.110000,357.154000,331.950000,354.968000C331.958000,354.964000,331.966000,354.959000,331.973000,354.955000L353.510000,342.649000C377.166000,329.154000,398.047000,311.292000,415.043000,290.012000L422.243000,281.006000C425.002000,277.558000,424.446000,272.526000,421,269.765000Z" fill="rgb(255,255,255)" stroke="none" stroke-width="1"/><path id="ek9ntu59qjle6" d="M440,188.012000C435.582000,188.012000,432,191.594000,432,196.012000L432,198.645000C432.004000,211.937000,429.861000,225.143000,425.654000,237.752000L424.411000,241.482000C422.973000,245.660000,425.193000,250.212000,429.371000,251.650000C433.549000,253.088000,438.101000,250.868000,439.539000,246.690000C439.556000,246.641000,439.572000,246.591000,439.588000,246.542000L440.832000,242.812000C445.583000,228.571000,448.003000,213.657000,447.999000,198.645000L447.999000,196.012000C448,191.594000,444.419000,188.012000,440,188.012000Z" fill="rgb(255,255,255)" stroke="none" stroke-width="1"/><path id="ek9ntu59qjle7" d="M440,148.012000C435.582000,148.012000,432,151.594000,432,156.012000L432,164.012000C432,168.430000,435.582000,172.012000,440,172.012000C444.418000,172.012000,448,168.430000,448,164.012000L448,156.012000C448,151.594000,444.419000,148.012000,440,148.012000Z" fill="rgb(255,255,255)" stroke="none" stroke-width="1"/><path id="ek9ntu59qjle8" d="M54.346000,237.753000C50.139000,225.144000,47.996000,211.938000,48,198.645000L48,196.012000C48,191.594000,44.418000,188.012000,40,188.012000C35.582000,188.012000,32,191.594000,32,196.012000L32,198.645000C31.996000,213.657000,34.416000,228.571000,39.167000,242.812000L40.411000,246.541000C41.767000,250.746000,46.275000,253.056000,50.480000,251.700000C54.685000,250.344000,56.995000,245.836000,55.639000,241.631000C55.623000,241.581000,55.606000,241.531000,55.589000,241.482000Z" fill="rgb(255,255,255)" stroke="none" stroke-width="1"/></svg>